
<global>
amp_veltrack=0
ampeg_attack=0.01
ampeg_release=0.85
loop_mode=loop_continuous
</global>

<group>
group_label=PP
xf_cccurve=gain
xfin_hicc1=63
xfout_hicc1=127
xfout_locc1=64

<region>
hikey=B4
hivel=127
lokey=A#4
loop_end=271061
loop_mode=loop_continuous
loop_start=95004
loop_xfade=34763
lovel=0
offset=1876
pitch_keycenter=A#4
sample=Sopranos_Ahh_nonvib_PP_A#4.opus
tune=+15
</region>

<region>
hikey=F6
hivel=127
lokey=A#5
loop_end=269774
loop_mode=loop_continuous
loop_start=94553
loop_xfade=34598
lovel=0
offset=1209
pitch_keycenter=A#5
sample=Sopranos_Ahh_nonvib_PP_A#5.opus
tune=+9
</region>

<region>
hikey=C#4
hivel=127
lokey=F3
loop_end=271060
loop_mode=loop_continuous
loop_start=95004
loop_xfade=34763
lovel=0
sample=Sopranos_Ahh_nonvib_PP_C4.opus
tune=+6
</region>

<region>
hikey=C#5
hivel=127
lokey=C5
loop_end=271061
loop_mode=loop_continuous
loop_start=95004
loop_xfade=34763
lovel=0
offset=6451
pitch_keycenter=C5
sample=Sopranos_Ahh_nonvib_PP_C5.opus
tune=+8
</region>

<region>
hikey=D#4
hivel=127
lokey=D4
loop_end=271061
loop_mode=loop_continuous
loop_start=95004
loop_xfade=34763
lovel=0
pitch_keycenter=D4
sample=Sopranos_Ahh_nonvib_PP_D4.opus
tune=+10
</region>

<region>
hikey=D#5
hivel=127
lokey=D5
loop_end=271061
loop_mode=loop_continuous
loop_start=95004
loop_xfade=34763
lovel=0
offset=4073
pitch_keycenter=D5
sample=Sopranos_Ahh_nonvib_PP_D5.opus
tune=+14
</region>

<region>
hikey=F4
hivel=127
lokey=E4
loop_end=271061
loop_mode=loop_continuous
loop_start=95004
loop_xfade=34763
lovel=0
pitch_keycenter=E4
sample=Sopranos_Ahh_nonvib_PP_E4.opus
tune=+4
</region>

<region>
hikey=F5
hivel=127
lokey=E5
loop_end=269966
loop_mode=loop_continuous
loop_start=94620
loop_xfade=34623
lovel=0
offset=3097
pitch_keycenter=E5
sample=Sopranos_Ahh_nonvib_PP_E5.opus
tune=+24
</region>

<region>
hikey=G4
hivel=127
lokey=F#4
loop_end=271061
loop_mode=loop_continuous
loop_start=95004
loop_xfade=34763
lovel=0
offset=575
pitch_keycenter=F#4
sample=Sopranos_Ahh_nonvib_PP_F#4.opus
tune=+5
</region>

<region>
hikey=G5
hivel=127
lokey=F#5
loop_end=270596
loop_mode=loop_continuous
loop_start=94841
loop_xfade=34703
lovel=0
offset=600
pitch_keycenter=F#5
sample=Sopranos_Ahh_nonvib_PP_F#5.opus
tune=+3
</region>

<region>
hikey=A4
hivel=127
lokey=G#4
loop_end=271061
loop_mode=loop_continuous
loop_start=95004
loop_xfade=34763
lovel=0
offset=1339
pitch_keycenter=G#4
sample=Sopranos_Ahh_nonvib_PP_G#4.opus
tune=+18
</region>

<region>
hikey=A5
hivel=127
lokey=G#5
loop_end=271061
loop_mode=loop_continuous
loop_start=95004
loop_xfade=34763
lovel=0
offset=856
pitch_keycenter=G#5
sample=Sopranos_Ahh_nonvib_PP_G#5.opus
tune=-1
</region>
</group>

<group>
group_label=FF
xf_cccurve=gain
xfin_hicc1=127
xfin_locc1=64
xfout_hicc1=127
xfout_locc1=127

<region>
hikey=B4
hivel=127
lokey=A#4
loop_end=271061
loop_mode=loop_continuous
loop_start=95004
loop_xfade=34763
lovel=0
pitch_keycenter=A#4
sample=Sopranos_Ahh_nonvib_FF_A#4.opus
tune=+10
</region>

<region>
hikey=F6
hivel=127
lokey=A#5
loop_end=268944
loop_mode=loop_continuous
loop_start=94262
loop_xfade=34492
lovel=0
offset=3216
pitch_keycenter=A#5
sample=Sopranos_Ahh_nonvib_FF_A#5.opus
tune=+19
</region>

<region>
hikey=C#4
hivel=127
lokey=F3
loop_end=271060
loop_mode=loop_continuous
loop_start=95004
loop_xfade=34763
lovel=0
offset=4704
sample=Sopranos_Ahh_nonvib_FF_C4.opus
tune=+5
</region>

<region>
hikey=C#5
hivel=127
lokey=C5
loop_end=268240
loop_mode=loop_continuous
loop_start=94015
loop_xfade=34401
lovel=0
offset=2344
pitch_keycenter=C5
sample=Sopranos_Ahh_nonvib_FF_C5.opus
tune=+3
</region>

<region>
hikey=D#4
hivel=127
lokey=D4
loop_end=271061
loop_mode=loop_continuous
loop_start=95004
loop_xfade=34763
lovel=0
offset=675
pitch_keycenter=D4
sample=Sopranos_Ahh_nonvib_FF_D4.opus
tune=+4
</region>

<region>
hikey=D#5
hivel=127
lokey=D5
loop_end=270041
loop_mode=loop_continuous
loop_start=94647
loop_xfade=34632
lovel=0
offset=2402
pitch_keycenter=D5
sample=Sopranos_Ahh_nonvib_FF_D5.opus
tune=+3
</region>

<region>
hikey=F4
hivel=127
lokey=E4
loop_end=271061
loop_mode=loop_continuous
loop_start=95004
loop_xfade=34763
lovel=0
offset=6341
pitch_keycenter=E4
sample=Sopranos_Ahh_nonvib_FF_E4.opus
tune=-7
</region>

<region>
hikey=F5
hivel=127
lokey=E5
loop_end=270409
loop_mode=loop_continuous
loop_start=94776
loop_xfade=34679
lovel=0
offset=2961
pitch_keycenter=E5
sample=Sopranos_Ahh_nonvib_FF_E5.opus
tune=-8
</region>

<region>
hikey=G4
hivel=127
lokey=F#4
loop_end=270563
loop_mode=loop_continuous
loop_start=94830
loop_xfade=34699
lovel=0
offset=9080
pitch_keycenter=F#4
sample=Sopranos_Ahh_nonvib_FF_F#4.opus
tune=-6
</region>

<region>
hikey=G5
hivel=127
lokey=F#5
loop_end=267566
loop_mode=loop_continuous
loop_start=93779
loop_xfade=34315
lovel=0
offset=1939
pitch_keycenter=F#5
sample=Sopranos_Ahh_nonvib_FF_F#5.opus
tune=+6
</region>

<region>
hikey=A4
hivel=127
lokey=G#4
loop_end=269931
loop_mode=loop_continuous
loop_start=94608
loop_xfade=34618
lovel=0
offset=1932
pitch_keycenter=G#4
sample=Sopranos_Ahh_nonvib_FF_G#4.opus
tune=+1
</region>

<region>
hikey=A5
hivel=127
lokey=G#5
loop_end=266775
loop_mode=loop_continuous
loop_start=93502
loop_xfade=34213
lovel=0
offset=2209
pitch_keycenter=G#5
sample=Sopranos_Ahh_nonvib_FF_G#5.opus
tune=+9
</region>
</group>